<svg xmlns="http://www.w3.org/2000/svg" xmlns:xlink="http://www.w3.org/1999/xlink" viewBox="0 0 566.93 137.53"><defs><style>.cls-1{isolation:isolate;}.cls-10,.cls-13,.cls-14,.cls-2,.cls-3,.cls-4,.cls-5,.cls-6,.cls-8{opacity:0.3;}.cls-10,.cls-11,.cls-12,.cls-13,.cls-14,.cls-15,.cls-19,.cls-2,.cls-3,.cls-4,.cls-5,.cls-6,.cls-8,.cls-9{mix-blend-mode:multiply;}.cls-2{fill:url(#radial-gradient);}.cls-3{fill:url(#radial-gradient-2);}.cls-4{fill:url(#radial-gradient-3);}.cls-5{fill:url(#radial-gradient-4);}.cls-6{fill:url(#radial-gradient-5);}.cls-7{fill:url(#linear-gradient);}.cls-8{fill:url(#linear-gradient-2);}.cls-11,.cls-12,.cls-15,.cls-9{opacity:0.4;}.cls-9{fill:url(#linear-gradient-3);}.cls-10{fill:url(#linear-gradient-4);}.cls-11{fill:url(#linear-gradient-5);}.cls-12{fill:url(#linear-gradient-6);}.cls-13{fill:url(#linear-gradient-7);}.cls-14{fill:url(#linear-gradient-8);}.cls-15{fill:url(#linear-gradient-9);}.cls-16{fill:#d77d7d;}.cls-17{fill:#761417;}.cls-18{fill:url(#linear-gradient-10);}.cls-19{opacity:0.1;fill:url(#linear-gradient-11);}.cls-20{fill:#838383;}.cls-21{fill:#fff;}.cls-22{fill:#aaa;}.cls-23{fill:#231f20;stroke:#231f20;stroke-miterlimit:10;stroke-width:1.42px;}.cls-24{fill:#e00d1d;}.cls-25{fill:#9d141c;}.cls-26{fill:#651314;}</style><radialGradient id="radial-gradient" cx="284.38" cy="-357.04" r="47.49" gradientTransform="matrix(4.07, -0.17, 0.02, 0.39, -880.65, 298.12)" gradientUnits="userSpaceOnUse"><stop offset="0"/><stop offset="0.13" stop-color="#2b2b2b"/><stop offset="0.37" stop-color="#767676"/><stop offset="0.59" stop-color="#b1b1b1"/><stop offset="0.77" stop-color="#dbdbdb"/><stop offset="0.92" stop-color="#f5f5f5"/><stop offset="1" stop-color="#fff"/></radialGradient><radialGradient id="radial-gradient-2" cx="57.91" cy="264.96" r="36.2" gradientTransform="matrix(0.35, 0.04, -0.22, 1.63, 95.53, -364.21)" xlink:href="#radial-gradient"/><radialGradient id="radial-gradient-3" cx="37.4" cy="264.77" r="36.21" gradientTransform="matrix(0.83, 0.08, -0.22, 1.63, 84.8, -364.98)" xlink:href="#radial-gradient"/><radialGradient id="radial-gradient-4" cx="398.29" cy="220.14" r="36.21" gradientTransform="matrix(0.68, 0.33, -0.66, 1.04, 379.02, -280.09)" xlink:href="#radial-gradient"/><radialGradient id="radial-gradient-5" cx="-214.79" cy="219.87" r="36.2" gradientTransform="matrix(0.21, 0.1, -0.66, 1.04, 695.91, -127.41)" xlink:href="#radial-gradient"/><linearGradient id="linear-gradient" x1="282.9" y1="2.22" x2="293.7" y2="123.59" gradientUnits="userSpaceOnUse"><stop offset="0" stop-color="#e42658"/><stop offset="0.61" stop-color="#c01737"/><stop offset="1" stop-color="#ae1026"/></linearGradient><linearGradient id="linear-gradient-2" x1="256.84" y1="19.53" x2="255.78" y2="38.05" gradientUnits="userSpaceOnUse"><stop offset="0" stop-color="#fff"/><stop offset="0.09" stop-color="#faf8f8"/><stop offset="0.23" stop-color="#ebe5e5"/><stop offset="0.38" stop-color="#d2c5c5"/><stop offset="0.56" stop-color="#b09a9a"/><stop offset="0.75" stop-color="#846161"/><stop offset="0.96" stop-color="#501e1e"/><stop offset="1" stop-color="#440f0f"/></linearGradient><linearGradient id="linear-gradient-3" x1="256.33" y1="28.51" x2="255.85" y2="36.77" xlink:href="#linear-gradient-2"/><linearGradient id="linear-gradient-4" x1="519.21" y1="68.91" x2="505.05" y2="66.18" gradientUnits="userSpaceOnUse"><stop offset="0" stop-color="#fff"/><stop offset="1" stop-color="#440f0f"/></linearGradient><linearGradient id="linear-gradient-5" x1="513.63" y1="67.83" x2="505.15" y2="66.2" xlink:href="#linear-gradient-4"/><linearGradient id="linear-gradient-6" x1="57.87" y1="87.2" x2="68.35" y2="84.52" gradientUnits="userSpaceOnUse"><stop offset="0" stop-color="#fff"/><stop offset="0.18" stop-color="#e0d8d8"/><stop offset="0.6" stop-color="#947575"/><stop offset="1" stop-color="#440f0f"/></linearGradient><linearGradient id="linear-gradient-7" x1="47.54" y1="89.85" x2="68.28" y2="84.54" xlink:href="#linear-gradient-4"/><linearGradient id="linear-gradient-8" x1="313.94" y1="127.7" x2="312.21" y2="112.92" xlink:href="#linear-gradient-4"/><linearGradient id="linear-gradient-9" x1="313.23" y1="121.62" x2="312.22" y2="113.04" xlink:href="#linear-gradient-4"/><linearGradient id="linear-gradient-10" x1="54.43" y1="14.46" x2="495.3" y2="137.27" gradientUnits="userSpaceOnUse"><stop offset="0" stop-color="#dad9d9"/><stop offset="1" stop-color="#f3f2f2"/></linearGradient><linearGradient id="linear-gradient-11" x1="96.36" y1="-47.08" x2="207.55" y2="24.77" gradientUnits="userSpaceOnUse"><stop offset="0"/><stop offset="0.09" stop-color="#0b0b0b"/><stop offset="0.24" stop-color="#282828"/><stop offset="0.43" stop-color="#575757"/><stop offset="0.67" stop-color="#989898"/><stop offset="0.94" stop-color="#ebebeb"/><stop offset="1" stop-color="#fff"/></linearGradient></defs><title>Logo_con_gioco</title><g class="cls-1"><g id="Livello_1" data-name="Livello 1"><path class="cls-2" d="M498.67,108.13c.42,7.84-231.13,16.9-312.44,20.22s-147.58-.35-148-8.2,65.16-16.9,146.47-20.22S498.24,100.28,498.67,108.13Z"/><path class="cls-3" d="M70.76,70.62C66.41,103.18,57.23,129,50.26,128.3s-9.11-27.67-4.76-60.24S59,9.67,66,10.37,75.11,38.05,70.76,70.62Z"/><path class="cls-4" d="M88,72.37C83.69,104.93,66.77,130,50.26,128.3s-26.38-29.42-22-62S49.49,8.71,66,10.37,92.38,39.8,88,72.37Z"/><path class="cls-5" d="M530.05,91.69c-13.21,20.83-35,32.4-48.62,25.84s-14-28.76-.79-49.59,35-32.39,48.62-25.83S543.26,70.87,530.05,91.69Z"/><path class="cls-6" d="M513,83.49c-13.22,20.83-27.34,36.07-31.56,34S484.5,97,497.71,76.15s27.34-36.07,31.55-34S526.19,62.66,513,83.49Z"/><polygon class="cls-7" points="61.48 12.31 51.22 121.42 485.52 110.38 529.07 45.87 61.48 12.31"/><polygon class="cls-8" points="452.52 37.35 61.48 12.31 59.12 37.35 452.52 37.35"/><polygon class="cls-9" points="452.52 37.35 61.48 12.31 59.12 37.35 452.52 37.35"/><polygon class="cls-10" points="499.27 42.55 499.27 90.01 529.07 45.87 499.27 42.55"/><polygon class="cls-11" points="499.27 42.55 499.27 90.01 529.07 45.87 499.27 42.55"/><polygon class="cls-12" points="83.71 47.63 58.16 47.63 51.22 121.42 83.71 120.08 83.71 47.63"/><polygon class="cls-13" points="83.71 47.63 58.16 47.63 51.22 121.42 83.71 120.08 83.71 47.63"/><polygon class="cls-14" points="129.42 95.92 129.42 118.2 485.52 110.38 493.63 98.38 493.63 95.92 129.42 95.92"/><polygon class="cls-15" points="129.42 95.92 129.42 118.2 485.52 110.38 493.63 98.38 493.63 95.92 129.42 95.92"/><polygon class="cls-16" points="52.34 120.48 62.41 13.32 527.4 46.58 529.07 45.87 61.48 12.31 51.22 121.42 52.34 120.48"/><polygon class="cls-17" points="527.4 46.58 484.92 109.51 52.34 120.48 51.22 121.42 485.52 110.38 529.07 45.87 527.4 46.58"/><path class="cls-18" d="M510.57,39.14,50,26.17l30.45,97.92.25,0c.28-.45.23-1,1-1.32-.73.32-.68.87-1,1.32L498.61,98.54Z"/><path class="cls-19" d="M510.57,39.14,50,26.17l30.45,97.92.25,0c.28-.45.23-1,1-1.32-.73.32-.68.87-1,1.32L498.61,98.54Z"/><polygon class="cls-20" points="49.99 26.17 80.44 124.09 81.2 123.12 51.35 27.13 51.38 27.13 50.05 26.18 49.99 26.17"/><polygon class="cls-21" points="510.57 39.14 50.05 26.18 51.38 27.13 509.36 39.98 510.57 39.14"/><polygon class="cls-20" points="81.2 123.12 80.44 124.09 498.61 98.54 498.61 98.53 497.73 97.73 81.2 123.12"/><polygon class="cls-22" points="509.36 39.98 497.73 97.73 497.73 97.73 498.61 98.53 510.57 39.14 509.36 39.98"/><path class="cls-23" d="M96.86,44.26l-4.35,1.28L84.32,48,55.51,56.43,66.43,36.7l7.95-14.37,2.2-4,1.69-3.06a47.93,47.93,0,1,0,23.89,41.46,48.09,48.09,0,0,0-1.94-13.5Z"/><path class="cls-21" d="M83.19,46.82,54.38,55.3,65.3,35.57a17.81,17.81,0,0,1-2.49-1c-.24-7.09-2.35-12.3-9.33-12.62h-.91c-7,.35-9.08,5.61-9.28,12.74-6.2,2.57-15.29,4.43-19.13,9.5a6.87,6.87,0,0,0-1.35,3.56v.45c.34,4.78,3.72,5.23,8.72,5.43,2.1.09,4.32,0,4.69,1.28.27.89-.52,2.61-1,3.56-1.57,3.27-3.44,6.28-5.05,9.24a41.43,41.43,0,0,0-4.29,10c-.6,2.44-.86,5.15,2.28,4.84l14.91,0c2-.13,2.73-1.47,3.63-2.89,1.46-2.29,2.42-4.12,3.92-6.36.59-.89,1.52-2.64,2.57-2.58s1.87,1.73,2.42,2.56c1.49,2.22,2.49,4,3.88,6.2,1,1.49,1.71,2.92,3.71,3l14.91,0c3.12.32,2.92-2.5,2.34-4.85A26.86,26.86,0,0,0,79.25,74c-2.4-5.78-5.54-10.14-8.21-15.64-.47-1-1.35-2.58-1.07-3.56.4-1.34,3.21-1.27,5.22-1.37,4.73-.23,8-.86,8.16-5.39v-.46C83.31,47.32,83.25,47.07,83.19,46.82Z"/><path class="cls-24" d="M83.19,46.82c.06.25.12.5.16.76V48c-.19,4.53-3.43,5.16-8.16,5.39-2,.1-4.82,0-5.22,1.37-.28,1,.6,2.58,1.07,3.56,2.67,5.5,5.81,9.86,8.21,15.64a26.86,26.86,0,0,1,1.22,3.56c.58,2.35.78,5.17-2.34,4.85l-14.91,0c-2-.1-2.76-1.53-3.71-3-1.39-2.17-2.39-4-3.88-6.2-.55-.83-1.46-2.51-2.42-2.56s-2,1.69-2.57,2.58c-1.5,2.24-2.46,4.07-3.92,6.36-.9,1.42-1.65,2.76-3.63,2.89l-14.91,0c-3.14.31-2.88-2.4-2.28-4.84a41.43,41.43,0,0,1,4.29-10c1.61-3,3.48-6,5.05-9.24.46-.95,1.25-2.67,1-3.56-.37-1.24-2.59-1.19-4.69-1.28-5-.2-8.38-.65-8.72-5.43v-.45a6.87,6.87,0,0,1,1.35-3.56c3.84-5.07,12.93-6.93,19.13-9.5.2-7.13,2.27-12.39,9.28-12.74h.91c7,.32,9.09,5.53,9.33,12.62a17.81,17.81,0,0,0,2.49,1l8-14.37A39.89,39.89,0,1,0,91.38,44.41Z"/><path class="cls-25" d="M91.38,44.41A39.91,39.91,0,1,1,73.25,21.2l2.19-4a44.4,44.4,0,1,0,20.29,25.9Z"/><path class="cls-26" d="M95.73,43.13a44.47,44.47,0,1,1-20.29-25.9l1.7-3.06a48,48,0,1,0,21.94,28Z"/></g></g></svg>